<?xml version="1.0" encoding="utf-8"?>
<!-- Generator: Adobe Illustrator 16.0.0, SVG Export Plug-In . SVG Version: 6.00 Build 0)  -->
<!DOCTYPE svg PUBLIC "-//W3C//DTD SVG 1.1//EN" "http://www.w3.org/Graphics/SVG/1.1/DTD/svg11.dtd">
<svg version="1.1" id="Layer_1" xmlns="http://www.w3.org/2000/svg" xmlns:xlink="http://www.w3.org/1999/xlink" x="0px" y="0px"
	 width="864px" height="864px" viewBox="0 0 864 864" enable-background="new 0 0 864 864" xml:space="preserve">
<path d="M750.734,251.699c-5.188-43.277-29.762-69.133-69.676-68.234c-36.223,0.816-55.977,24.129-58.727,68.133
	c-1.102,17.676-2.086,35.617-5.945,52.801c-9.953,44.266-21.547,88.133-65.672,114.098c-27.746-30.176-62.348-22.621-95.965-22.32
	c-51.418,0.473-102.875-0.215-154.277-1.715c-10.988-0.324-24.141-3.523-32.047-10.328c-7.656-6.594-11.52-19.266-13.266-29.891
	c-0.449-2.703,13.102-8.586,20.773-11.605c21.348-8.391,43.129-15.699,64.391-24.301c0.191-0.077,0.386-0.172,0.581-0.267
	C343.649,321.091,347.597,323,352,323c8.284,0,15-6.716,15-15s-6.716-15-15-15c-4.081,0-7.776,1.635-10.481,4.279
	c-0.455-0.323-0.906-0.627-1.343-0.9c-23.965-14.953-48.75-28.66-72.09-44.512c-5.75-3.906-8.254-13.93-10.305-21.66
	C253.766,215.09,249.215,198.328,246,183c-2.945-0.129-22.273,22.027-28.77,33.266c-14.109,24.391-16.242,24.102-34.871,3.242
	c-11.895-13.312-26.789-23.941-40.344-35.781c-7.086,17.551-17.348,34.5-20.711,52.734c-14.672,79.543-10.414,159.578,2.805,238.637
	c9.328,55.805,24.488,110.668,38.328,165.633c2.125,8.449,7.562,16.27,17.012,22.668C186,664,188,661,187.855,656.77
	c-2.707-30.508-5.418-61.012-8.152-91.82c38.969,2.117,39.633,2.941,42.047,37.738c1.348,19.465,2.688,38.984,5.496,58.262
	c1.09,7.496,6.215,14.406,9.508,21.586C240,684,243,684,245.719,681.715c4.391-34.215,8.785-68.426,12.746-99.305
	c59.574,0,114.484-0.531,169.355,0.766c5.938,0.145,15.508,10.188,16.707,16.848c3.617,20.008,3.387,40.68,5.859,60.949
	c0.711,5.832,3.613,12.027,8.43,16.719C463,680,466,678,466.102,675.812c2.922-22.594,7.418-45.125,8.352-67.797
	c1.074-26.582,13.383-37.852,39.176-36.805c4.09,30.078,8.062,59.34,12.043,88.605C526,663,540,663,540.828,659.43
	c6.93-71.16,13.852-142.32,20.988-215.656c2.742,0,6.98-0.367,11.133,0.059C681.086,454.699,761.184,338.898,750.734,251.699z"/>
<g>
	<path fill-rule="evenodd" clip-rule="evenodd" fill="#FFFFFF" d="M736.711,311.098c-13.594,2.949-22.008,4.77-32.078,6.957
		c-0.98-3.578-2.309-8.375-4.145-15.027c-5.816,3.676-11.203,7.082-17.625,11.133c-3.914-7.445-7.422-14.109-11.562-21.961
		c-5.215,5.922-9.625,10.914-15.492,17.57c-3.887-8.922-6.871-15.793-10.012-23.008c-5.465,3.293-10.457,6.305-16.371,9.863
		c-0.766-4.152-1.77-6.629-1.562-8.996c1.508-16.805,2.77-33.66,5.035-50.379c3.285-24.168,14.52-41.793,40.906-45.387
		c27.781-3.785,50.762,7.848,61.02,32.141C747.906,254.957,745.648,286.059,736.711,311.098z"/>
	<path fill-rule="evenodd" clip-rule="evenodd" fill="#FFFFFF" d="M390.824,555.66c-69.191-45.344-117.59-106.602-143.582-185.551
		c-6.438-19.539-2.41-28.984,18.707-34.008c21.344-5.078,41.609-14.668,67.84-24.293c-70.297-59.68-158.176-34.23-191.875,43.703
		c-24.664,57.039-12.566,113.18-0.582,169.438c1.98,9.316,12.938,21.332,22,23.785C236.395,568.543,311,577.375,387,575
		c8.289-0.258,16.391,0.43,31.523-1.277C405.191,565.035,397.996,560.359,390.824,555.66z M252.5,286c5.247,0,9.5,4.253,9.5,9.5
		s-4.253,9.5-9.5,9.5s-9.5-4.253-9.5-9.5S247.253,286,252.5,286z"/>
</g>
</svg>
