<?xml version="1.0" encoding="UTF-8" standalone="no"?>
<!--Created with Inkscape (http://www.inkscape.org/)-->
<svg xmlns="http://www.w3.org/2000/svg" xmlns:cc="http://creativecommons.org/ns#" xmlns:dc="http://purl.org/dc/elements/1.1/" xmlns:inkscape="http://www.inkscape.org/namespaces/inkscape" xmlns:rdf="http://www.w3.org/1999/02/22-rdf-syntax-ns#" xmlns:sodipodi="http://sodipodi.sourceforge.net/DTD/sodipodi-0.dtd" xmlns:svg="http://www.w3.org/2000/svg" xmlns:xlink="http://www.w3.org/1999/xlink" id="svg4245" width="210mm" height="297mm" version="1.1" viewBox="0 0 744.09448819 1052.3622047" inkscape:version="0.91 r13725" sodipodi:docname="BarnacleGooseInkscape.svg">
    <defs id="defs4247"/>
    <sodipodi:namedview id="base" bordercolor="#7A7D90" borderopacity="1.0" pagecolor="#ffffff" showgrid="false" inkscape:current-layer="svg4245" inkscape:cx="372.04724" inkscape:cy="526.1811" inkscape:document-units="px" inkscape:pageopacity="0.0" inkscape:pageshadow="2" inkscape:window-height="481" inkscape:window-maximized="1" inkscape:window-width="960" inkscape:window-x="-8" inkscape:window-y="-8" inkscape:zoom="0.30977927"/>
    <metadata id="metadata4250">
        <rdf:RDF>
            <cc:Work rdf:about="">
                <dc:format>
                    image/svg+xml
                </dc:format>
                <dc:type rdf:resource="http://purl.org/dc/dcmitype/StillImage"/>
                <dc:title/>
            </cc:Work>
        </rdf:RDF>
    </metadata>
    <g id="layer2" inkscape:groupmode="layer" inkscape:label="Layer 2"/>
    <g id="g4416" transform="matrix(-0.85511924,0,0,0.85511924,-433.48155,-33.088746)">
        <path id="path4279-4" d="m -1244.2572,651.37672 c -9.7984,0.36971 -21.0441,1.46874 -28.2843,8.08122 -15.8602,14.48518 -29.0071,22.99384 -21.0906,42.96122 13.3494,33.67084 62.8077,49.25993 95.8419,64.11495 20.989,9.43843 42.1643,18.49665 63.6396,26.76905 20.8934,8.04827 39.4467,15.9763 65.9908,24.7494 26.5442,8.77311 61.0793,18.39129 61.0793,18.39129 l 25.46289,-80.51634 -14.6472,-53.53808 c 0,0 -163.65749,-54.19478 -247.99239,-51.01271 z" style="fill:#fffbea;fill-rule:evenodd;stroke:#2E3451;stroke-width:1px;stroke-linecap:butt;stroke-linejoin:miter;stroke-opacity:1" inkscape:connector-curvature="0" sodipodi:nodetypes="sssssscccs"/>
        <path id="path4287-6" d="m -879.38291,835.38729 c -4.9514,-1.8979 -5.5916,-1.75509 -7.872,-1.87237 l -22.6418,3.05584 c -3.916,35.08754 -6.0304,63.86935 -8.0812,92.42896 0.6318,6.71255 1.2109,25.28997 5.5558,26.43292 10.2028,3.70389 20.6806,7.40779 26.264,11.11168 l 26.116,14.70849 c 14.3815,9.03808 32.6178,13.84581 50.6556,20.14179 l 32.3248,9.0914 c -1.5374,-10.62135 0.2785,-20.36019 16.6676,-26.26401 l 1.5152,-9.09138 c -12.182,-11.14173 -13.1035,-16.65328 -14.1422,-22.22335 l -5.5558,-8.08122 c -33.5112,-1.51523 -66.3041,-3.03046 -96.9746,-4.54569 -8.9921,-5.10594 -8.2945,-15.59502 -9.0914,-25.25381 z" style="fill:#2E3451;fill-rule:evenodd;stroke:#2E3451;stroke-width:1px;stroke-linecap:butt;stroke-linejoin:miter;stroke-opacity:1" inkscape:connector-curvature="0" sodipodi:nodetypes="cccccccccccccccc"/>
        <path id="path4277-3" d="m -1034.1455,712.49095 c -4.6276,0.51418 -30.6429,60.22304 3.5355,84.34774 12.6251,8.91134 22.7285,40.4061 22.7285,40.4061 0,0 90.84699,8.90675 135.36039,1.51523 36.8233,-6.11455 72.7419,-19.59237 105.561,-37.37564 25.3429,-13.73225 48.4199,-32.03531 68.6903,-52.52794 15.2259,-15.39276 28.8575,-32.83707 38.8909,-52.02285 5.6746,-10.8509 11.6168,-34.85027 11.6168,-34.85027 l -19.1929,-38.89087 -77.7818,-36.87057 -59.0939,4.04061 -231.32489,84.85282 z" style="fill:#C6C7CF;fill-rule:evenodd;stroke:none;stroke-width:1px;stroke-linecap:butt;stroke-linejoin:miter;stroke-opacity:1" inkscape:connector-curvature="0" sodipodi:nodetypes="cscsssscccccc"/>
        <circle id="path4271-5" cx="-644.22656" cy="236.20403" r="12.626907" style="fill:#2E3451"/>
        <path id="path4283-2" d="m -1255.874,657.94271 c -7.9134,0.5748 -15.256,4.40344 -22.7284,7.07107 -8.0381,2.86958 -16.1722,5.64734 -23.7386,9.59645 -4.0983,2.13904 -6.2365,3.15154 -10.8591,7.32361 -0.9519,0.85907 0.7576,3.78807 0.7576,3.78807 -5.2695,5.69829 41.4443,-17.61702 73.236,-19.69798 l 2.5254,-5.05076 c 0,0 -12.733,-3.49968 -19.1929,-3.03046 z" style="fill:#2E3451;fill-rule:evenodd;stroke:#2E3451;stroke-width:1px;stroke-linecap:butt;stroke-linejoin:miter;stroke-opacity:1" inkscape:connector-curvature="0" sodipodi:nodetypes="sssssccs"/>
        <path id="path4275-1" d="m -794.73931,517.02643 c -27.8022,-2.92511 -56.1331,-1.68068 -83.8427,2.02031 -46.0592,6.15183 -90.8359,20.03612 -135.36039,33.33503 -35.4082,10.57596 -70.2869,23.02958 -104.5508,36.87057 -12.0149,4.85345 -35.3554,16.16244 -35.3554,16.16244 l 14.6473,2.52538 c 0,0 -81.4564,13.65941 -121.7234,22.72844 -14.7802,3.32882 -32.9516,4.12899 -43.9417,11.61675 -2.8683,1.95425 -0.8624,9.34711 2.5254,10.10153 102.2267,22.76448 167.4429,36.83213 265.1651,59.599 8.0894,1.88464 18.0955,-1.4813 23.7385,-7.57615 12.6967,-13.71326 25.47709,-28.31162 47.47719,-29.7995 4.1008,-0.27734 6.3701,-5.34767 10.1015,-7.07107 11.5294,-5.32498 24.9505,-5.21563 36.8706,-9.59645 5.0888,-1.8702 9.6222,-5.03575 14.6472,-7.07106 14.9033,-6.03633 30.7045,-10.85693 46.467,-11.11168 14.9746,-0.24201 29.7201,-6.34187 39.396,-15.15229 9.3334,-8.49858 20.4854,-14.30363 31.8198,-19.1929 15.3923,-6.6397 41.9213,-27.77919 41.9213,-27.77919 l -7.5761,-50.50763 c 0,0 -27.9688,-8.58042 -42.4264,-10.10153 z" style="fill:#7A7D90;fill-rule:evenodd;stroke:none;stroke-width:1px;stroke-linecap:butt;stroke-linejoin:miter;stroke-opacity:1" inkscape:connector-curvature="0" sodipodi:nodetypes="ssssccssssssssssssccs"/>
        <path id="path4281-5" d="m -1229.1049,696.83359 c 5.4654,1.56246 8.3856,3.50671 0.5051,7.07107 -57.477,19.69337 -81.3932,20.5088 -109.6016,23.73858 -19.9885,-0.78414 -5.6022,-6.85672 -3.0305,-11.11168 l 62.6295,-26.26396 c 13.4745,4.2051 30.3129,6.16762 49.4975,6.56599 z" style="fill:#2E3451;fill-rule:evenodd;stroke:#2E3451;stroke-width:1px;stroke-linecap:butt;stroke-linejoin:miter;stroke-opacity:1" inkscape:connector-curvature="0" sodipodi:nodetypes="cccccc"/>
        <path id="path4289-3" d="m -831.37532,1049.0197 c 6.9153,-4.8069 14.9195,-3.0806 23.7386,3.5356 0,0 -0.4336,-9.277 -3.5355,-12.1219 -3.1634,-2.9012 -12.627,-2.5253 -12.627,-2.5253 l -11.1116,-1.5153 -4.5457,8.0812 z" style="fill:#2E3451;fill-rule:evenodd;stroke:#2E3451;stroke-width:1px;stroke-linecap:butt;stroke-linejoin:miter;stroke-opacity:1" inkscape:connector-curvature="0" sodipodi:nodetypes="ccscccc"/>
        <path id="path4291-4" d="m -808.25385,1022.669 c 0,0 -7.2316,-7.3944 -11.9739,-8.2291 -4.6692,-0.8219 -13.2799,3.6834 -13.2799,3.6834 l 2.5254,9.0914 c 0,0 6.8636,-3.9728 11.0504,-4.7549 3.4793,-0.6499 11.678,0.2092 11.678,0.2092 z" style="fill:#2E3451;fill-rule:evenodd;stroke:#2E3451;stroke-width:1px;stroke-linecap:butt;stroke-linejoin:miter;stroke-opacity:1" inkscape:connector-curvature="0" sodipodi:nodetypes="csccsc"/>
        <path id="path4293-8" d="m -871.00591,1071.0951 c 0,0 6.9402,1.9941 8.7702,2.8825 4.9448,2.4008 11.4329,7.219 11.4329,7.219 0,0 -2.6882,-11.7069 -6.0609,-15.5707 -2.5823,-2.9583 -10.1015,-4.6323 -10.1015,-4.6323 z" style="fill:#2E3451;fill-rule:evenodd;stroke:#2E3451;stroke-width:1px;stroke-linecap:butt;stroke-linejoin:miter;stroke-opacity:1" inkscape:connector-curvature="0" sodipodi:nodetypes="cscscc"/>
        <path id="path4295-1" d="m -783.28781,1008.8652 c 7.14091,1.2237 13.27891,3.4782 15.11571,10.1561 0,0 -0.4396,-9.7676 -2.43461,-13.0564 -1.881,-3.1006 -8.09208,-4.7837 -8.09208,-4.7837 z" style="fill:#2E3451;fill-rule:evenodd;stroke:#2E3451;stroke-width:1px;stroke-linecap:butt;stroke-linejoin:miter;stroke-opacity:1" inkscape:connector-curvature="0" sodipodi:nodetypes="ccscc"/>
        <path id="path4297-5" d="m -769.12837,985.23214 c 0,0 8.3045,-2.04326 13.8104,-1.28063 3.4379,0.4762 12.9586,4.31109 12.9586,4.31109 0,0 -7.502,-9.04416 -13.6624,-11.76469 -3.2924,-1.45395 -13.1066,-2.37745 -13.1066,-2.37745 z" style="fill:#2E3451;fill-rule:evenodd;stroke:#2E3451;stroke-width:1px;stroke-linecap:butt;stroke-linejoin:miter;stroke-opacity:1" inkscape:connector-curvature="0" sodipodi:nodetypes="cscscc"/>
        <path id="path4299-6" d="m -780.03088,944.4689 c 6.8844,-0.71274 19.698,6.56599 19.698,6.56599 0,0 -8.0634,-0.14403 -11.678,0.53046 -3.6561,0.68223 -10.0403,3.51015 -10.0403,3.51015 l -4.0406,-7.07107 c 0,0 3.7344,-3.29467 6.0609,-3.53553 z" style="fill:#2E3451;fill-rule:evenodd;stroke:#2E3451;stroke-width:1px;stroke-linecap:butt;stroke-linejoin:miter;stroke-opacity:1" inkscape:connector-curvature="0" sodipodi:nodetypes="scsccs"/>
        <path id="path4285-4" d="m -943.73681,829.16357 c 1.8995,-6.24983 -1.375,-7.97245 -7.0711,-7.57614 -15.6327,0.35372 -28.9017,0.0321 -37.8807,-1.51523 0,0 -16.95729,28.82358 -19.69799,44.95179 -5.1766,30.46298 5.1183,61.59104 7.0711,92.42895 0.8487,13.40271 -5.1995,26.43258 -5.5559,25.25382 l -11.6167,10.10152 -4.0406,11.61672 5.5558,-3.5355 12.1218,-2.52538 3.0305,-3.03046 c 2.73689,-0.42313 5.20549,-0.30945 6.06089,3.03046 2.6518,13.10598 2.7377,28.58038 17.1726,30.80968 11.6197,1.7945 32.824,17.6241 50.0026,24.7487 19.8681,8.2402 39.6433,19.4269 61.1142,20.7081 3.2631,0.1948 7.8287,0.7295 9.5964,-2.0203 2.681,-4.1703 -1.1102,-12.635 5.0508,-16.1624 7.9518,-4.5526 18.6143,-3.8595 25.7589,-9.5965 2.6581,-2.1344 6.5954,-5.3396 5.5558,-8.5862 -2.098,-6.5525 -2.9274,-12.2849 0,-17.1726 1.2976,-2.1666 1.4501,-6.3651 -1.0714,-6.5048 -10.3775,-0.5748 -16.87549,-2.3136 -25.6976,-2.0815 -19.1929,0.505 0,0 -19.1929,0.505 -30.0247,0.79 -61.5496,-8.174 -93.4391,-16.16241 0,0 -8.2447,-38.19206 -10.9384,-56.03809 -2.6937,-17.84602 -4.8669,-52.46665 -4.8669,-52.46665 2.4446,-23.44713 24.4364,-50.67361 32.9779,-59.18058 z" style="fill:#2E3451;fill-rule:evenodd;stroke:#2E3451;stroke-width:1px;stroke-linecap:butt;stroke-linejoin:miter;stroke-opacity:1" inkscape:connector-curvature="0" sodipodi:nodetypes="cccsscccccccssssssssssscssc"/>
        <path id="path4273-9" d="m -626.54891,209.43498 c 0,0 -24.3231,-16.54126 -38.3858,-18.18274 -20.8594,-2.43484 -44.9499,0.35802 -61.6193,13.13198 -19.0652,14.60984 -26.8623,40.87854 -32.83,64.14469 -4.3103,16.80432 -1.6658,34.6752 -1.5152,52.02285 0.063,7.24698 0.6791,14.47859 1.0101,21.71828 0.6852,14.9834 1.8686,29.9535 2.0203,44.95179 0.138,13.64052 -0.1681,27.29598 -1.0101,40.91118 -1.2637,20.43231 -0.2836,41.47503 -6.0609,61.11423 -2.1888,7.44022 -5.3613,14.9955 -10.6066,20.70813 -3.2227,3.50978 -7.4977,6.42665 -12.1219,7.57614 -2.2932,0.57006 -7.071,-0.50508 -7.071,-0.50508 0,0 -2.3432,60.37415 8.0812,87.88328 5.5485,14.64223 15.9327,27.64151 27.7792,37.88072 11.9657,10.34226 26.8948,17.28928 41.9213,22.22335 13.0979,4.30078 27.1716,7.18955 40.9112,6.06092 9.8699,-0.81075 28.2843,-9.09138 28.2843,-9.09138 0,0 9.646,-49.29232 12.1218,-74.24621 3.3652,-33.91764 -1.7338,-67.25406 -2.2728,-68.94291 0,0 -10.1018,-31.85887 -16.415,-47.22463 -8.2107,-19.98391 -14.2533,-38.80825 -17.6777,-58.58885 -3.2951,-19.03378 -4.6283,-40.5136 -2.5254,-61.6193 1.3239,-13.28667 4.0639,-26.73858 9.5965,-38.89088 9.4639,-20.78744 39.3959,-56.06346 39.3959,-56.06346 z" style="fill:#2E3451;fill-rule:evenodd;stroke:#2E3451;stroke-width:1px;stroke-linecap:butt;stroke-linejoin:miter;stroke-opacity:1" inkscape:connector-curvature="0" sodipodi:nodetypes="csssssssssscsssscsssssscc"/>
        <path id="path4269-0" d="m -626.54891,209.43498 c -1.4949,-1.359 -28.039,-2.64124 -41.9214,-1.01015 -12.4511,1.46294 -27.0021,1.73515 -35.8604,10.6066 -7.5019,7.51315 -8.1717,19.19031 -8.5863,29.7995 -0.4074,10.42757 1.253,21.30252 5.5559,30.80966 3.4584,7.64138 9.1636,14.38927 15.6573,19.69797 7.4617,6.09995 25.7589,13.13198 25.7589,13.13198 10.1198,-5.82459 24.3471,-11.95877 46.467,-18.68782 l 29.2945,-7.57614 -7.0711,-37.37565 c 0,0 -10.8296,-20.46167 -18.1828,-29.29442 -3.2026,-3.84706 0,0 -11.1116,-10.10153 z" style="fill:#fffbea;fill-rule:evenodd;stroke:#2E3451;stroke-width:1px;stroke-linecap:butt;stroke-linejoin:miter;stroke-opacity:1" inkscape:connector-curvature="0" sodipodi:nodetypes="ssssssccccss"/>
        <path id="path4267-0" d="m -551.04001,287.46927 c 2.5754,-7.01431 -3.5791,-13.06809 -9.3439,-15.40483 -14.7035,-5.95998 -18.3933,-7.02216 -24.7488,-12.12183 -4.3729,-3.50886 -12.6269,-11.11168 -12.6269,-11.11168 -0.1898,-0.75928 -9.3686,-0.63131 -11.1117,4.54569 -1.108,3.29078 2.2224,9.54531 -2.5253,17.17259 -3.8061,6.11438 3.5213,13.71731 4.5456,13.13199 0,0 13.8063,1.33853 20.7082,2.0203 10.1027,0.99795 20.203,2.0203 30.3045,3.03046 1.6836,0.16836 4.2151,0.32562 4.7983,-1.26269 z" style="fill:#2E3451;fill-rule:evenodd;stroke:#2E3451;stroke-width:1px;stroke-linecap:butt;stroke-linejoin:miter;stroke-opacity:1" inkscape:connector-curvature="0" sodipodi:nodetypes="ssscsscsss"/>
        <circle id="path4414" cx="-650.03314" cy="239.69449" r="12.626906" style="fill:#2E3451;stroke:#2E3451;stroke-opacity:1"/>
    </g>
</svg>
