<?xml version="1.0" standalone="no"?>
<!DOCTYPE svg PUBLIC "-//W3C//DTD SVG 20010904//EN"
 "http://www.w3.org/TR/2001/REC-SVG-20010904/DTD/svg10.dtd">
<svg version="1.0" xmlns="http://www.w3.org/2000/svg"
 width="1280.000000pt" height="1090.000000pt" viewBox="0 0 1280.000000 1090.000000"
 preserveAspectRatio="xMidYMid meet">
<g transform="translate(0.000000,1090.000000) scale(0.100000,-0.100000)"
fill="#000000" stroke="none">
<path d="M9922 10825 c-144 -96 -200 -140 -291 -228 -92 -90 -150 -171 -200
-279 -55 -117 -82 -217 -157 -582 -36 -176 -67 -323 -69 -327 -3 -4 -19 -101
-35 -216 -102 -709 -224 -1197 -422 -1691 -145 -363 -358 -782 -616 -1211
l-51 -84 -14 35 c-18 43 -21 45 -88 57 -30 5 -81 21 -115 35 -221 93 -539 140
-1639 240 -516 47 -455 47 -890 6 -196 -19 -263 -26 -455 -50 -41 -5 -120 -14
-175 -20 -618 -70 -1283 -211 -1764 -375 -50 -17 -78 -22 -86 -15 -8 6 -38 -2
-93 -25 -192 -81 -689 -226 -834 -244 -49 -6 -127 -16 -175 -21 -845 -100
-1060 -132 -1247 -186 -136 -39 -196 -75 -196 -120 0 -33 51 -79 128 -115 41
-19 112 -70 181 -128 62 -53 155 -130 207 -171 51 -41 94 -79 96 -84 2 -4
-184 -81 -412 -171 -383 -149 -419 -165 -462 -207 -34 -31 -48 -52 -48 -70 0
-35 39 -80 90 -103 28 -13 37 -22 30 -29 -18 -18 -11 -52 19 -80 35 -34 126
-63 225 -72 60 -5 75 -10 79 -25 11 -41 155 -50 382 -24 72 8 312 22 535 31
l404 16 26 -30 c14 -16 84 -100 155 -188 141 -172 445 -485 565 -580 359 -287
695 -444 1235 -578 147 -36 385 -85 545 -111 154 -25 143 -19 124 -63 -33 -76
-62 -171 -73 -238 -17 -97 -3 -170 76 -402 l65 -194 -7 -378 -7 -379 -57 -11
c-123 -24 -217 -51 -241 -68 -35 -26 -65 -82 -101 -192 -18 -52 -34 -100 -36
-107 -3 -7 35 4 83 24 75 30 100 36 159 35 38 -1 90 -7 115 -14 l45 -14 23
-84 c36 -130 61 -195 90 -229 24 -28 50 -38 267 -100 325 -93 681 -213 909
-305 103 -42 190 -76 192 -76 2 0 -6 15 -16 33 -49 82 -32 186 40 251 45 41
93 63 167 78 l52 11 -40 29 c-44 32 -63 70 -54 106 9 35 73 98 134 131 l54 29
-81 26 c-182 57 -343 92 -772 166 -494 85 -616 116 -675 173 l-33 32 -36 400
-36 400 41 200 c62 299 58 403 -21 602 -17 41 -30 78 -30 81 0 4 120 4 267 1
148 -3 363 -4 479 -1 l210 5 26 -124 27 -123 -45 -375 c-24 -206 -48 -378 -52
-382 -4 -3 -65 -11 -136 -17 -186 -17 -194 -23 -275 -185 -35 -70 -62 -129
-60 -131 2 -3 47 7 99 20 63 17 109 24 137 20 53 -7 154 -42 164 -57 3 -6 14
-61 24 -123 17 -113 44 -193 73 -219 10 -8 91 -45 182 -82 371 -151 734 -320
974 -453 71 -40 131 -72 133 -72 2 0 -3 13 -12 30 -23 44 -20 144 6 189 42 72
135 120 237 121 59 0 65 8 23 33 -16 9 -36 32 -45 51 -15 31 -15 39 -3 68 8
18 25 43 38 55 29 26 121 73 144 73 85 0 -244 128 -593 230 -114 34 -283 84
-377 112 -305 89 -437 142 -489 196 l-28 30 10 414 11 413 50 150 50 150 58 7
c437 54 616 86 861 157 222 63 399 133 627 246 295 146 547 309 815 525 268
216 637 562 633 593 -2 10 37 70 85 135 110 145 127 171 242 357 192 308 235
383 291 500 124 262 170 419 234 805 20 118 49 283 65 365 53 271 114 655 150
945 6 47 15 117 20 155 31 245 28 196 60 868 6 116 15 295 20 397 5 102 12
250 15 330 l6 145 110 166 110 166 46 7 c25 3 80 6 122 6 42 0 123 4 181 10
58 5 161 14 230 20 185 16 445 56 600 92 79 18 120 19 615 17 470 -1 537 0
596 16 78 20 143 54 147 78 8 41 -121 82 -305 96 -103 8 -121 13 -245 65 -186
77 -456 177 -628 232 -142 46 -146 48 -210 109 -286 274 -672 421 -1340 510
-31 4 -49 -5 -148 -70z"/>
</g>
</svg>
