<?xml version="1.0" encoding="UTF-8"?>
<svg viewBox="0 0 327.12131 236" xmlns="http://www.w3.org/2000/svg" xmlns:xlink="http://www.w3.org/1999/xlink">
 <defs>
  <linearGradient id="b">
   <stop stop-color="#336404" offset="0"/>
   <stop stop-color="#4e9a06" offset="1"/>
  </linearGradient>
  <linearGradient id="c">
   <stop stop-color="#4e9a06" offset="0"/>
   <stop stop-color="#336404" offset="1"/>
  </linearGradient>
  <linearGradient id="a">
   <stop stop-color="#73d216" offset="0"/>
   <stop stop-color="#4e9a06" offset="1"/>
  </linearGradient>
  <linearGradient id="d" x2="0" y1="594.36" y2="495.34" gradientUnits="userSpaceOnUse">
   <stop stop-color="#336404" offset="0"/>
   <stop stop-color="#336404" stop-opacity="0" offset="1"/>
  </linearGradient>
  <linearGradient id="at" x1="82" x2="76" y1="264.36" y2="662.36" gradientTransform="matrix(.97941 0 0 .40273 -39.842 -104.1)" gradientUnits="userSpaceOnUse">
   <stop stop-color="#3465a4" offset="0"/>
   <stop stop-color="#729fcf" offset="1"/>
  </linearGradient>
  <linearGradient id="as" x2="0" y1="244.14" y2="216.38" gradientUnits="userSpaceOnUse">
   <stop stop-color="#366b04" offset="0"/>
   <stop stop-color="#366b04" stop-opacity="0" offset="1"/>
  </linearGradient>
  <linearGradient id="ar" x1="160.18" x2="165.8" y1="481.5" y2="482.07" gradientTransform="matrix(-1.1843 0 0 .61693 385.22 245.98)" gradientUnits="userSpaceOnUse" xlink:href="#a"/>
  <linearGradient id="aq" x1="160.18" x2="165.8" y1="481.5" y2="482.07" gradientTransform="matrix(-1 0 0 1 348.1 25.36)" gradientUnits="userSpaceOnUse" xlink:href="#a"/>
  <linearGradient id="ap" x1="160.18" x2="165.8" y1="481.5" y2="482.07" gradientTransform="matrix(-1 0 0 .9136 339.51 75.123)" gradientUnits="userSpaceOnUse" xlink:href="#a"/>
  <linearGradient id="ao" x1="156.8" x2="163.3" y1="479.18" y2="484.39" gradientTransform="matrix(.90868 0 0 .72133 43.328 185.85)" gradientUnits="userSpaceOnUse" xlink:href="#a"/>
  <linearGradient id="an" x1="160.93" x2="165.8" y1="480.74" y2="482.07" gradientTransform="matrix(-1 0 0 1 358.5 25.36)" gradientUnits="userSpaceOnUse" xlink:href="#a"/>
  <linearGradient id="am" x1="168.93" x2="156.8" y1="531.36" y2="467.66" gradientTransform="matrix(1.0323 0 0 .72133 11.729 185.85)" gradientUnits="userSpaceOnUse" xlink:href="#b"/>
  <linearGradient id="al" x1="160.18" x2="165.8" y1="481.5" y2="482.07" gradientTransform="matrix(.81331 .051909 -.051909 .81331 70.683 124.65)" gradientUnits="userSpaceOnUse" xlink:href="#c"/>
  <linearGradient id="ak" x1="160.18" x2="165.8" y1="481.5" y2="482.07" gradientTransform="matrix(-1.1843 0 0 .61693 379.89 245.98)" gradientUnits="userSpaceOnUse" xlink:href="#b"/>
  <linearGradient id="aj" x1="168.93" x2="156.8" y1="531.36" y2="467.66" gradientTransform="matrix(-1.0323 0 0 .90086 363.63 82.456)" gradientUnits="userSpaceOnUse" xlink:href="#b"/>
  <linearGradient id="ai" x1="160.18" x2="165.8" y1="481.5" y2="482.07" gradientTransform="matrix(-1.1843 0 0 .61693 374.84 245.98)" gradientUnits="userSpaceOnUse" xlink:href="#b"/>
  <linearGradient id="ah" x1="160.18" x2="165.8" y1="481.5" y2="482.07" gradientTransform="matrix(-1.1843 0 0 .61693 353.82 245.98)" gradientUnits="userSpaceOnUse" xlink:href="#a"/>
  <linearGradient id="ag" x1="160.18" x2="165.8" y1="481.5" y2="482.07" gradientTransform="matrix(-1.1843 0 0 .61693 344.27 245.98)" gradientUnits="userSpaceOnUse" xlink:href="#a"/>
  <linearGradient id="af" x1="160.18" x2="165.8" y1="481.5" y2="482.07" gradientTransform="matrix(-1 0 0 1 332.49 25.36)" gradientUnits="userSpaceOnUse" xlink:href="#a"/>
  <linearGradient id="ae" x1="143.02" x2="148.64" y1="506.86" y2="507.43" gradientUnits="userSpaceOnUse" xlink:href="#a"/>
  <linearGradient id="ad" x1="156.8" x2="163.3" y1="479.18" y2="484.39" gradientTransform="matrix(.90868 0 0 .72133 16.377 185.85)" gradientUnits="userSpaceOnUse" xlink:href="#a"/>
  <linearGradient id="ac" x1="160.93" x2="165.8" y1="480.74" y2="482.07" gradientTransform="matrix(-1 0 0 1 318.34 25.36)" gradientUnits="userSpaceOnUse" xlink:href="#a"/>
  <linearGradient id="ab" x1="168.93" x2="156.8" y1="531.36" y2="467.66" gradientTransform="matrix(1.0323 0 0 .72133 -16.733 185.85)" gradientUnits="userSpaceOnUse" xlink:href="#b"/>
  <linearGradient id="aa" x1="160.18" x2="165.8" y1="481.5" y2="482.07" gradientTransform="matrix(.81331 .051909 -.051909 .81331 45.17 124.65)" gradientUnits="userSpaceOnUse" xlink:href="#c"/>
  <linearGradient id="z" x1="160.18" x2="165.8" y1="481.5" y2="482.07" gradientTransform="matrix(-1.1843 0 0 .61693 355.23 245.98)" gradientUnits="userSpaceOnUse" xlink:href="#b"/>
  <linearGradient id="y" x1="168.93" x2="156.8" y1="531.36" y2="467.66" gradientTransform="matrix(-1.0323 0 0 .90086 333.3 82.456)" gradientUnits="userSpaceOnUse" xlink:href="#b"/>
  <linearGradient id="x" x1="160.18" x2="165.8" y1="481.5" y2="482.07" gradientTransform="matrix(-1.1843 0 0 .61693 340.03 245.98)" gradientUnits="userSpaceOnUse" xlink:href="#b"/>
  <linearGradient id="w" x1="230.94" x2="236.57" y1="506.86" y2="507.43" gradientUnits="userSpaceOnUse" xlink:href="#a"/>
  <linearGradient id="v" x1="160.18" x2="165.8" y1="481.5" y2="482.07" gradientTransform="matrix(1 0 0 .9136 79.356 75.123)" gradientUnits="userSpaceOnUse" xlink:href="#a"/>
  <linearGradient id="u" x1="156.8" x2="163.3" y1="479.18" y2="484.39" gradientTransform="matrix(-.90868 0 0 .72133 375.54 185.85)" gradientUnits="userSpaceOnUse" xlink:href="#a"/>
  <linearGradient id="t" x1="221.3" x2="226.17" y1="506.1" y2="507.43" gradientUnits="userSpaceOnUse" xlink:href="#a"/>
  <linearGradient id="s" x1="160.18" x2="165.8" y1="481.5" y2="482.07" gradientTransform="matrix(-.81331 .051909 .051909 .81331 349.69 124.65)" gradientUnits="userSpaceOnUse" xlink:href="#c"/>
  <linearGradient id="r" x1="160.18" x2="165.8" y1="481.5" y2="482.07" gradientTransform="matrix(1.1843 0 0 .61693 38.976 245.98)" gradientUnits="userSpaceOnUse" xlink:href="#b"/>
  <linearGradient id="q" x1="168.93" x2="156.8" y1="531.36" y2="467.66" gradientTransform="matrix(1.0323 0 0 .90086 55.235 82.456)" gradientUnits="userSpaceOnUse" xlink:href="#b"/>
  <linearGradient id="p" x1="160.18" x2="165.8" y1="481.5" y2="482.07" gradientTransform="matrix(1.1843 0 0 .61693 44.034 245.98)" gradientUnits="userSpaceOnUse" xlink:href="#b"/>
  <linearGradient id="o" x1="160.18" x2="165.8" y1="481.5" y2="482.07" gradientTransform="matrix(1.1843 0 0 .61693 16.552 245.98)" gradientUnits="userSpaceOnUse" xlink:href="#a"/>
  <linearGradient id="n" x1="160.18" x2="165.8" y1="481.5" y2="482.07" gradientTransform="matrix(1.1843 0 0 .61693 26.098 245.98)" gradientUnits="userSpaceOnUse" xlink:href="#a"/>
  <linearGradient id="m" x1="246.56" x2="252.19" y1="506.86" y2="507.43" gradientUnits="userSpaceOnUse" xlink:href="#a"/>
  <linearGradient id="l" x1="160.18" x2="165.8" y1="481.5" y2="482.07" gradientTransform="matrix(-1 0 0 1 373.03 25.36)" gradientUnits="userSpaceOnUse" xlink:href="#a"/>
  <linearGradient id="k" x1="156.8" x2="163.3" y1="479.18" y2="484.39" gradientTransform="matrix(-.90868 0 0 .72133 387.49 185.85)" gradientUnits="userSpaceOnUse" xlink:href="#a"/>
  <linearGradient id="j" x1="212.96" x2="217.83" y1="506.1" y2="507.43" gradientUnits="userSpaceOnUse" xlink:href="#a"/>
  <linearGradient id="i" x1="168.93" x2="156.8" y1="531.36" y2="467.66" gradientTransform="matrix(-1.0323 0 0 .72133 387.1 185.85)" gradientUnits="userSpaceOnUse" xlink:href="#b"/>
  <linearGradient id="h" x1="160.18" x2="165.8" y1="481.5" y2="482.07" gradientTransform="matrix(-.81331 .051909 .051909 .81331 325.2 124.65)" gradientUnits="userSpaceOnUse" xlink:href="#c"/>
  <linearGradient id="g" x1="160.18" x2="165.8" y1="481.5" y2="482.07" gradientTransform="matrix(1.1843 0 0 .61693 15.138 245.98)" gradientUnits="userSpaceOnUse" xlink:href="#b"/>
  <linearGradient id="f" x1="168.93" x2="156.8" y1="531.36" y2="467.66" gradientTransform="matrix(1.0323 0 0 .90086 71.068 82.456)" gradientUnits="userSpaceOnUse" xlink:href="#b"/>
  <linearGradient id="e" x1="160.18" x2="165.8" y1="481.5" y2="482.07" gradientTransform="matrix(1.1843 0 0 .61693 30.341 245.98)" gradientUnits="userSpaceOnUse" xlink:href="#b"/>
 </defs>
 <g transform="translate(-1.2929 -2.3622)">
  <path d="m1.2929 2.3622h327.12v236h-327.12z" fill="url(#at)" opacity=".8"/>
  <g transform="translate(-138 -362.93)">
   <path d="m188.95 515.91c-1.6767 2.7475-6.8823 21.476-8.7361 21.156-1.8712 0.09507-2.0374-4.2367-2.2583-8.25-0.18753-3.406-0.40978-6.5866-1.7829-6.5938-1.7032-0.00896-8.6211 11.135-11.678 10.375-0.90655-0.22547-0.0814-6.6753-0.416-8.5625l-3.7143 18.531-6.7452-16.156-6.0321 7.0938-4.368-4.125v70.375h106.44v-65.344l-4.368 3.8438-6.0321-6.5938-6.7452 15-3.7143-17.219c-0.33459 1.7521 0.49055 7.7594-0.416 7.9688-3.0567 0.70578-9.9747-9.6333-11.678-9.625-1.3731 0.0067-1.5954 2.9315-1.7829 6.0938-0.22094 3.726-0.38706 7.7758-2.2583 7.6875-1.8537 0.29651-7.0594-17.105-8.7361-19.656-1.6201 2.1484 1.5043 7.1016-1.0103 9.25l-2.3474-2.0938-4.6355-8.875-5.9726 5.6875c-2.5146-2.3141 0.6098-7.6547-1.0103-9.9688z" fill="url(#d)"/>
   <path d="m155.77 535.59s-5.8084 26.747-6.0856 40.584c-0.1517 7.5733-3.8068 24.898-3.8068 24.898l6.3447 0.22033s2.3928-29.158 2.07-43.046c-0.20815-8.9559 1.4777-22.656 1.4777-22.656z" fill="url(#x)"/>
   <path d="m163.86 510.81s3.7771 33.596 3.5355 53.801c-0.13222 11.059-3.318 36.356-3.318 36.356l5.5301 0.32172s2.0856-42.577 1.8042-62.856c-0.18142-13.078-7.5517-27.622-7.5517-27.622z" fill="url(#y)"/>
   <path d="m161.31 520.79s5.6315 35.737 3.5866 55.383c-0.78424 7.5341-3.8068 24.898-3.8068 24.898l6.3447 0.22033s2.3928-29.158 2.07-43.046c-0.20815-8.9559-8.1945-37.455-8.1945-37.455z" fill="url(#z)"/>
   <path d="m151.73 490.42-3.6291 77.875 0.51932 32.99-4.3756 0.01239 3.0524-79.881 4.433-30.996z" fill="url(#aa)"/>
   <path d="m157.65 523.19s-8.7268 32.557-8.4852 48.736c0.13222 8.8549 3.318 29.111 3.318 29.111l-5.5301 0.25761s-2.0856-34.092-1.8042-50.33c0.18142-10.471 12.501-27.775 12.501-27.775z" fill="url(#ab)"/>
   <path d="m158.86 500.51-3.5682 0.3089 2.3414 59.765-3.2143 40.357 5.3572 0.35714 1.7478-69.774-4.9943-28.186 2.3304-2.8284z" fill="url(#ac)"/>
   <path d="m174.68 519.4s-12.48 36.345-12.267 52.524c0.11639 8.8549 2.9208 29.111 2.9208 29.111l-4.8679 0.2576s-1.8358-34.092-1.5882-50.33c0.1597-10.471 15.803-31.563 15.803-31.563z" fill="url(#ad)"/>
   <path d="m147.12 458.08-3.5714 102.5 3.2143 40.357-5.3572 0.35714-2.5054-98.058 8.2197-45.156z" fill="url(#ae)"/>
   <path d="m167.44 486.36 4.329 74.216-3.2143 40.357 5.3572 0.35714 1.7478-69.774-8.2197-45.156z" fill="url(#af)"/>
   <path d="m147.29 527.11s6.9195 35.232 6.6423 49.069c-0.1517 7.5733-3.8068 24.898-3.8068 24.898l6.3447 0.22033s2.3928-29.158 2.07-43.046c-0.20815-8.9559-11.25-31.141-11.25-31.141z" fill="url(#ag)"/>
   <path d="m156.84 527.11s6.9195 35.232 6.6423 49.069c-0.1517 7.5733-3.8068 24.898-3.8068 24.898l6.3447 0.22033s2.3928-29.158 2.07-43.046c-0.20815-8.9559-11.25-31.141-11.25-31.141z" fill="url(#ah)"/>
   <path d="m190.58 535.59s-5.8084 26.747-6.0856 40.584c-0.1517 7.5733-3.8068 24.898-3.8068 24.898l6.3447 0.22033s2.3928-29.158 2.07-43.046c-0.20815-8.9559 1.4777-22.656 1.4777-22.656z" fill="url(#ai)"/>
   <path d="m194.2 510.81s3.7771 33.596 3.5355 53.801c-0.13222 11.059-3.318 36.356-3.318 36.356l5.5301 0.32172s2.0856-42.577 1.8042-62.856c-0.18142-13.078-7.5517-27.622-7.5517-27.622z" fill="url(#aj)"/>
   <path d="m186.14 530.34s5.4548 26.191 3.4098 45.837c-0.78424 7.5341-3.8068 24.898-3.8068 24.898l6.3447 0.22033s2.3928-29.158 2.07-43.046c-0.20815-8.9559-8.0177-27.909-8.0177-27.909z" fill="url(#ak)"/>
   <path d="m177.24 490.42-3.6291 77.875 0.51932 32.99-4.3756 0.01239 3.0524-79.881 4.433-30.996z" fill="url(#al)"/>
   <path d="m186.12 523.19s-8.7268 32.557-8.4852 48.736c0.13222 8.8549 3.318 29.111 3.318 29.111l-5.5301 0.25761s-2.0856-34.092-1.8042-50.33c0.18142-10.471 12.501-27.775 12.501-27.775z" fill="url(#am)"/>
   <path d="m192.47 500.68 2.9725 0.13212 2.3414 59.765-3.2143 40.357 5.3572 0.35714 1.7478-69.774-5.1711-32.428-4.0335 1.591z" fill="url(#an)"/>
   <path d="m201.63 519.4s-12.48 36.345-12.267 52.524c0.11639 8.8549 2.9208 29.111 2.9208 29.111l-4.8679 0.2576s-1.8358-34.092-1.5882-50.33c0.1597-10.471 15.803-31.563 15.803-31.563z" fill="url(#ao)"/>
   <path d="m175.23 470.45 3.5714 93.644-3.2143 36.87 5.3572 0.32628 2.5054-89.585-8.2197-41.255z" fill="url(#ap)"/>
   <path d="m183.06 486.36 4.329 74.216-3.2143 40.357 5.3572 0.35714 1.7478-69.774-8.2197-45.156z" fill="url(#aq)"/>
   <path d="m188.24 527.11s6.9195 35.232 6.6423 49.069c-0.1517 7.5733-3.8068 24.898-3.8068 24.898l6.3447 0.22033s2.3928-29.158 2.07-43.046c-0.20815-8.9559-11.25-31.141-11.25-31.141z" fill="url(#ar)"/>
   <path d="m191.18 527.11s6.9195 35.232 6.6423 49.069c-0.1517 7.5733-3.8068 24.898-3.8068 24.898l6.3447 0.22033s2.3928-29.158 2.07-43.046c-0.20815-8.9559-11.25-31.141-11.25-31.141z" fill="#4d9805"/>
   <path d="m214.6 535.59s5.8084 26.747 6.0856 40.584c0.1517 7.5733 3.8068 24.898 3.8068 24.898l-6.3447 0.22033s-2.3928-29.158-2.07-43.046c0.20815-8.9559-1.4777-22.656-1.4777-22.656z" fill="url(#e)"/>
   <path d="m240.51 510.81s-3.7771 33.596-3.5355 53.801c0.13222 11.059 3.318 36.356 3.318 36.356l-5.5301 0.32172s-2.0856-42.577-1.8042-62.856c0.18142-13.078 7.5517-27.622 7.5517-27.622z" fill="url(#f)"/>
   <path d="m209.06 520.79s-5.6315 35.737-3.5866 55.383c0.78424 7.5341 3.8068 24.898 3.8068 24.898l-6.3447 0.22033s-2.3928-29.158-2.07-43.046c0.20815-8.9559 8.1945-37.455 8.1945-37.455z" fill="url(#g)"/>
   <path d="m218.64 490.42 3.6291 77.875-0.51932 32.99 4.3756 0.01239-3.0524-79.881-4.433-30.996z" fill="url(#h)"/>
   <path d="m212.72 523.19s8.7268 32.557 8.4852 48.736c-0.13222 8.8549-3.318 29.111-3.318 29.111l5.5301 0.25761s2.0856-34.092 1.8042-50.33c-0.18142-10.471-12.501-27.775-12.501-27.775z" fill="url(#i)"/>
   <path d="m211.51 500.51 3.5682 0.3089-2.3414 59.765 3.2143 40.357-5.3572 0.35714-1.7478-69.774 4.9943-28.186-2.3304-2.8284z" fill="url(#j)"/>
   <path d="m229.19 519.4s12.48 36.345 12.267 52.524c-0.11639 8.8549-2.9208 29.111-2.9208 29.111l4.8679 0.2576s1.8358-34.092 1.5882-50.33c-0.1597-10.471-15.803-31.563-15.803-31.563z" fill="url(#k)"/>
   <path d="m208.75 458.08 3.5714 102.5-3.2143 40.357 5.3572 0.35714 2.5054-98.058-8.2197-45.156z" fill="url(#l)"/>
   <path d="m251.43 486.36-4.329 74.216 3.2143 40.357-5.3572 0.35714-1.7478-69.774 8.2197-45.156z" fill="url(#m)"/>
   <path d="m223.08 527.11s-6.9195 35.232-6.6423 49.069c0.1517 7.5733 3.8068 24.898 3.8068 24.898l-6.3447 0.22033s-2.3928-29.158-2.07-43.046c0.20815-8.9559 11.25-31.141 11.25-31.141z" fill="url(#n)"/>
   <path d="m213.53 527.11s-6.9195 35.232-6.6423 49.069c0.1517 7.5733 3.8068 24.898 3.8068 24.898l-6.3447 0.22033s-2.3928-29.158-2.07-43.046c0.20815-8.9559 11.25-31.141 11.25-31.141z" fill="url(#o)"/>
   <path d="m228.29 535.59s5.8084 26.747 6.0856 40.584c0.1517 7.5733 3.8068 24.898 3.8068 24.898l-6.3447 0.22033s-2.3928-29.158-2.07-43.046c0.20815-8.9559-1.4777-22.656-1.4777-22.656z" fill="url(#p)"/>
   <path d="m224.67 510.81s-3.7771 33.596-3.5355 53.801c0.13222 11.059 3.318 36.356 3.318 36.356l-5.5301 0.32172s-2.0856-42.577-1.8042-62.856c0.18142-13.078 7.5517-27.622 7.5517-27.622z" fill="url(#q)"/>
   <path d="m232.73 530.34s-5.4548 26.191-3.4098 45.837c0.78424 7.5341 3.8068 24.898 3.8068 24.898l-6.3447 0.22033s-2.3928-29.158-2.07-43.046c0.20815-8.9559 8.0177-27.909 8.0177-27.909z" fill="url(#r)"/>
   <path d="m243.13 490.42 3.6291 77.875-0.51932 32.99 4.3756 0.01239-3.0524-79.881-4.433-30.996z" fill="url(#s)"/>
   <path d="m226.4 500.68-2.9725 0.13212-2.3414 59.765 3.2143 40.357-5.3572 0.35714-1.7478-69.774 5.1711-32.428 4.0335 1.591z" fill="url(#t)"/>
   <path d="m217.24 519.4s12.48 36.345 12.267 52.524c-0.11639 8.8549-2.9208 29.111-2.9208 29.111l4.8679 0.2576s1.8358-34.092 1.5882-50.33c-0.1597-10.471-15.803-31.563-15.803-31.563z" fill="url(#u)"/>
   <path d="m243.64 470.45-3.5714 93.644 3.2143 36.87-5.3572 0.32628-2.5054-89.585 8.2197-41.255z" fill="url(#v)"/>
   <path d="m235.81 486.36-4.329 74.216 3.2143 40.357-5.3572 0.35714-1.7478-69.774 8.2197-45.156z" fill="url(#w)"/>
  </g>
  <g transform="matrix(-1 0 0 1 361.33 -362.93)">
   <path d="m188.95 515.91c-1.6767 2.7475-6.8823 21.476-8.7361 21.156-1.8712 0.09507-2.0374-4.2367-2.2583-8.25-0.18753-3.406-0.40978-6.5866-1.7829-6.5938-1.7032-0.00896-8.6211 11.135-11.678 10.375-0.90655-0.22547-0.0814-6.6753-0.416-8.5625l-3.7143 18.531-6.7452-16.156-6.0321 7.0938-4.368-4.125v70.375h106.44v-65.344l-4.368 3.8438-6.0321-6.5938-6.7452 15-3.7143-17.219c-0.33459 1.7521 0.49055 7.7594-0.416 7.9688-3.0567 0.70578-9.9747-9.6333-11.678-9.625-1.3731 0.0067-1.5954 2.9315-1.7829 6.0938-0.22094 3.726-0.38706 7.7758-2.2583 7.6875-1.8537 0.29651-7.0594-17.105-8.7361-19.656-1.6201 2.1484 1.5043 7.1016-1.0103 9.25l-2.3474-2.0938-4.6355-8.875-5.9726 5.6875c-2.5146-2.3141 0.6098-7.6547-1.0103-9.9688z" fill="url(#d)"/>
   <path d="m155.77 535.59s-5.8084 26.747-6.0856 40.584c-0.1517 7.5733-3.8068 24.898-3.8068 24.898l6.3447 0.22033s2.3928-29.158 2.07-43.046c-0.20815-8.9559 1.4777-22.656 1.4777-22.656z" fill="url(#x)"/>
   <path d="m163.86 510.81s3.7771 33.596 3.5355 53.801c-0.13222 11.059-3.318 36.356-3.318 36.356l5.5301 0.32172s2.0856-42.577 1.8042-62.856c-0.18142-13.078-7.5517-27.622-7.5517-27.622z" fill="url(#y)"/>
   <path d="m161.31 520.79s5.6315 35.737 3.5866 55.383c-0.78424 7.5341-3.8068 24.898-3.8068 24.898l6.3447 0.22033s2.3928-29.158 2.07-43.046c-0.20815-8.9559-8.1945-37.455-8.1945-37.455z" fill="url(#z)"/>
   <path d="m151.73 490.42-3.6291 77.875 0.51932 32.99-4.3756 0.01239 3.0524-79.881 4.433-30.996z" fill="url(#aa)"/>
   <path d="m157.65 523.19s-8.7268 32.557-8.4852 48.736c0.13222 8.8549 3.318 29.111 3.318 29.111l-5.5301 0.25761s-2.0856-34.092-1.8042-50.33c0.18142-10.471 12.501-27.775 12.501-27.775z" fill="url(#ab)"/>
   <path d="m158.86 500.51-3.5682 0.3089 2.3414 59.765-3.2143 40.357 5.3572 0.35714 1.7478-69.774-4.9943-28.186 2.3304-2.8284z" fill="url(#ac)"/>
   <path d="m174.68 519.4s-12.48 36.345-12.267 52.524c0.11639 8.8549 2.9208 29.111 2.9208 29.111l-4.8679 0.2576s-1.8358-34.092-1.5882-50.33c0.1597-10.471 15.803-31.563 15.803-31.563z" fill="url(#ad)"/>
   <path d="m147.12 458.08-3.5714 102.5 3.2143 40.357-5.3572 0.35714-2.5054-98.058 8.2197-45.156z" fill="url(#ae)"/>
   <path d="m167.44 486.36 4.329 74.216-3.2143 40.357 5.3572 0.35714 1.7478-69.774-8.2197-45.156z" fill="url(#af)"/>
   <path d="m147.29 527.11s6.9195 35.232 6.6423 49.069c-0.1517 7.5733-3.8068 24.898-3.8068 24.898l6.3447 0.22033s2.3928-29.158 2.07-43.046c-0.20815-8.9559-11.25-31.141-11.25-31.141z" fill="url(#ag)"/>
   <path d="m156.84 527.11s6.9195 35.232 6.6423 49.069c-0.1517 7.5733-3.8068 24.898-3.8068 24.898l6.3447 0.22033s2.3928-29.158 2.07-43.046c-0.20815-8.9559-11.25-31.141-11.25-31.141z" fill="url(#ah)"/>
   <path d="m190.58 535.59s-5.8084 26.747-6.0856 40.584c-0.1517 7.5733-3.8068 24.898-3.8068 24.898l6.3447 0.22033s2.3928-29.158 2.07-43.046c-0.20815-8.9559 1.4777-22.656 1.4777-22.656z" fill="url(#ai)"/>
   <path d="m194.2 510.81s3.7771 33.596 3.5355 53.801c-0.13222 11.059-3.318 36.356-3.318 36.356l5.5301 0.32172s2.0856-42.577 1.8042-62.856c-0.18142-13.078-7.5517-27.622-7.5517-27.622z" fill="url(#aj)"/>
   <path d="m186.14 530.34s5.4548 26.191 3.4098 45.837c-0.78424 7.5341-3.8068 24.898-3.8068 24.898l6.3447 0.22033s2.3928-29.158 2.07-43.046c-0.20815-8.9559-8.0177-27.909-8.0177-27.909z" fill="url(#ak)"/>
   <path d="m177.24 490.42-3.6291 77.875 0.51932 32.99-4.3756 0.01239 3.0524-79.881 4.433-30.996z" fill="url(#al)"/>
   <path d="m186.12 523.19s-8.7268 32.557-8.4852 48.736c0.13222 8.8549 3.318 29.111 3.318 29.111l-5.5301 0.25761s-2.0856-34.092-1.8042-50.33c0.18142-10.471 12.501-27.775 12.501-27.775z" fill="url(#am)"/>
   <path d="m192.47 500.68 2.9725 0.13212 2.3414 59.765-3.2143 40.357 5.3572 0.35714 1.7478-69.774-5.1711-32.428-4.0335 1.591z" fill="url(#an)"/>
   <path d="m201.63 519.4s-12.48 36.345-12.267 52.524c0.11639 8.8549 2.9208 29.111 2.9208 29.111l-4.8679 0.2576s-1.8358-34.092-1.5882-50.33c0.1597-10.471 15.803-31.563 15.803-31.563z" fill="url(#ao)"/>
   <path d="m175.23 470.45 3.5714 93.644-3.2143 36.87 5.3572 0.32628 2.5054-89.585-8.2197-41.255z" fill="url(#ap)"/>
   <path d="m183.06 486.36 4.329 74.216-3.2143 40.357 5.3572 0.35714 1.7478-69.774-8.2197-45.156z" fill="url(#aq)"/>
   <path d="m188.24 527.11s6.9195 35.232 6.6423 49.069c-0.1517 7.5733-3.8068 24.898-3.8068 24.898l6.3447 0.22033s2.3928-29.158 2.07-43.046c-0.20815-8.9559-11.25-31.141-11.25-31.141z" fill="url(#ar)"/>
   <path d="m191.18 527.11s6.9195 35.232 6.6423 49.069c-0.1517 7.5733-3.8068 24.898-3.8068 24.898l6.3447 0.22033s2.3928-29.158 2.07-43.046c-0.20815-8.9559-11.25-31.141-11.25-31.141z" fill="#4d9805"/>
   <path d="m214.6 535.59s5.8084 26.747 6.0856 40.584c0.1517 7.5733 3.8068 24.898 3.8068 24.898l-6.3447 0.22033s-2.3928-29.158-2.07-43.046c0.20815-8.9559-1.4777-22.656-1.4777-22.656z" fill="url(#e)"/>
   <path d="m240.51 510.81s-3.7771 33.596-3.5355 53.801c0.13222 11.059 3.318 36.356 3.318 36.356l-5.5301 0.32172s-2.0856-42.577-1.8042-62.856c0.18142-13.078 7.5517-27.622 7.5517-27.622z" fill="url(#f)"/>
   <path d="m209.06 520.79s-5.6315 35.737-3.5866 55.383c0.78424 7.5341 3.8068 24.898 3.8068 24.898l-6.3447 0.22033s-2.3928-29.158-2.07-43.046c0.20815-8.9559 8.1945-37.455 8.1945-37.455z" fill="url(#g)"/>
   <path d="m218.64 490.42 3.6291 77.875-0.51932 32.99 4.3756 0.01239-3.0524-79.881-4.433-30.996z" fill="url(#h)"/>
   <path d="m212.72 523.19s8.7268 32.557 8.4852 48.736c-0.13222 8.8549-3.318 29.111-3.318 29.111l5.5301 0.25761s2.0856-34.092 1.8042-50.33c-0.18142-10.471-12.501-27.775-12.501-27.775z" fill="url(#i)"/>
   <path d="m211.51 500.51 3.5682 0.3089-2.3414 59.765 3.2143 40.357-5.3572 0.35714-1.7478-69.774 4.9943-28.186-2.3304-2.8284z" fill="url(#j)"/>
   <path d="m229.19 519.4s12.48 36.345 12.267 52.524c-0.11639 8.8549-2.9208 29.111-2.9208 29.111l4.8679 0.2576s1.8358-34.092 1.5882-50.33c-0.1597-10.471-15.803-31.563-15.803-31.563z" fill="url(#k)"/>
   <path d="m208.75 458.08 3.5714 102.5-3.2143 40.357 5.3572 0.35714 2.5054-98.058-8.2197-45.156z" fill="url(#l)"/>
   <path d="m251.43 486.36-4.329 74.216 3.2143 40.357-5.3572 0.35714-1.7478-69.774 8.2197-45.156z" fill="url(#m)"/>
   <path d="m223.08 527.11s-6.9195 35.232-6.6423 49.069c0.1517 7.5733 3.8068 24.898 3.8068 24.898l-6.3447 0.22033s-2.3928-29.158-2.07-43.046c0.20815-8.9559 11.25-31.141 11.25-31.141z" fill="url(#n)"/>
   <path d="m213.53 527.11s-6.9195 35.232-6.6423 49.069c0.1517 7.5733 3.8068 24.898 3.8068 24.898l-6.3447 0.22033s-2.3928-29.158-2.07-43.046c0.20815-8.9559 11.25-31.141 11.25-31.141z" fill="url(#o)"/>
   <path d="m228.29 535.59s5.8084 26.747 6.0856 40.584c0.1517 7.5733 3.8068 24.898 3.8068 24.898l-6.3447 0.22033s-2.3928-29.158-2.07-43.046c0.20815-8.9559-1.4777-22.656-1.4777-22.656z" fill="url(#p)"/>
   <path d="m224.67 510.81s-3.7771 33.596-3.5355 53.801c0.13222 11.059 3.318 36.356 3.318 36.356l-5.5301 0.32172s-2.0856-42.577-1.8042-62.856c0.18142-13.078 7.5517-27.622 7.5517-27.622z" fill="url(#q)"/>
   <path d="m232.73 530.34s-5.4548 26.191-3.4098 45.837c0.78424 7.5341 3.8068 24.898 3.8068 24.898l-6.3447 0.22033s-2.3928-29.158-2.07-43.046c0.20815-8.9559 8.0177-27.909 8.0177-27.909z" fill="url(#r)"/>
   <path d="m243.13 490.42 3.6291 77.875-0.51932 32.99 4.3756 0.01239-3.0524-79.881-4.433-30.996z" fill="url(#s)"/>
   <path d="m226.4 500.68-2.9725 0.13212-2.3414 59.765 3.2143 40.357-5.3572 0.35714-1.7478-69.774 5.1711-32.428 4.0335 1.591z" fill="url(#t)"/>
   <path d="m217.24 519.4s12.48 36.345 12.267 52.524c-0.11639 8.8549-2.9208 29.111-2.9208 29.111l4.8679 0.2576s1.8358-34.092 1.5882-50.33c-0.1597-10.471-15.803-31.563-15.803-31.563z" fill="url(#u)"/>
   <path d="m243.64 470.45-3.5714 93.644 3.2143 36.87-5.3572 0.32628-2.5054-89.585 8.2197-41.255z" fill="url(#v)"/>
   <path d="m235.81 486.36-4.329 74.216 3.2143 40.357-5.3572 0.35714-1.7478-69.774 8.2197-45.156z" fill="url(#w)"/>
  </g>
  <g transform="translate(77.5 -362.93)">
   <path d="m188.95 515.91c-1.6767 2.7475-6.8823 21.476-8.7361 21.156-1.8712 0.09507-2.0374-4.2367-2.2583-8.25-0.18753-3.406-0.40978-6.5866-1.7829-6.5938-1.7032-0.00896-8.6211 11.135-11.678 10.375-0.90655-0.22547-0.0814-6.6753-0.416-8.5625l-3.7143 18.531-6.7452-16.156-6.0321 7.0938-4.368-4.125v70.375h106.44v-65.344l-4.368 3.8438-6.0321-6.5938-6.7452 15-3.7143-17.219c-0.33459 1.7521 0.49055 7.7594-0.416 7.9688-3.0567 0.70578-9.9747-9.6333-11.678-9.625-1.3731 0.0067-1.5954 2.9315-1.7829 6.0938-0.22094 3.726-0.38706 7.7758-2.2583 7.6875-1.8537 0.29651-7.0594-17.105-8.7361-19.656-1.6201 2.1484 1.5043 7.1016-1.0103 9.25l-2.3474-2.0938-4.6355-8.875-5.9726 5.6875c-2.5146-2.3141 0.6098-7.6547-1.0103-9.9688z" fill="url(#d)"/>
   <path d="m155.77 535.59s-5.8084 26.747-6.0856 40.584c-0.1517 7.5733-3.8068 24.898-3.8068 24.898l6.3447 0.22033s2.3928-29.158 2.07-43.046c-0.20815-8.9559 1.4777-22.656 1.4777-22.656z" fill="url(#x)"/>
   <path d="m163.86 510.81s3.7771 33.596 3.5355 53.801c-0.13222 11.059-3.318 36.356-3.318 36.356l5.5301 0.32172s2.0856-42.577 1.8042-62.856c-0.18142-13.078-7.5517-27.622-7.5517-27.622z" fill="url(#y)"/>
   <path d="m161.31 520.79s5.6315 35.737 3.5866 55.383c-0.78424 7.5341-3.8068 24.898-3.8068 24.898l6.3447 0.22033s2.3928-29.158 2.07-43.046c-0.20815-8.9559-8.1945-37.455-8.1945-37.455z" fill="url(#z)"/>
   <path d="m151.73 490.42-3.6291 77.875 0.51932 32.99-4.3756 0.01239 3.0524-79.881 4.433-30.996z" fill="url(#aa)"/>
   <path d="m157.65 523.19s-8.7268 32.557-8.4852 48.736c0.13222 8.8549 3.318 29.111 3.318 29.111l-5.5301 0.25761s-2.0856-34.092-1.8042-50.33c0.18142-10.471 12.501-27.775 12.501-27.775z" fill="url(#ab)"/>
   <path d="m158.86 500.51-3.5682 0.3089 2.3414 59.765-3.2143 40.357 5.3572 0.35714 1.7478-69.774-4.9943-28.186 2.3304-2.8284z" fill="url(#ac)"/>
   <path d="m174.68 519.4s-12.48 36.345-12.267 52.524c0.11639 8.8549 2.9208 29.111 2.9208 29.111l-4.8679 0.2576s-1.8358-34.092-1.5882-50.33c0.1597-10.471 15.803-31.563 15.803-31.563z" fill="url(#ad)"/>
   <path d="m147.12 458.08-3.5714 102.5 3.2143 40.357-5.3572 0.35714-2.5054-98.058 8.2197-45.156z" fill="url(#ae)"/>
   <path d="m167.44 486.36 4.329 74.216-3.2143 40.357 5.3572 0.35714 1.7478-69.774-8.2197-45.156z" fill="url(#af)"/>
   <path d="m147.29 527.11s6.9195 35.232 6.6423 49.069c-0.1517 7.5733-3.8068 24.898-3.8068 24.898l6.3447 0.22033s2.3928-29.158 2.07-43.046c-0.20815-8.9559-11.25-31.141-11.25-31.141z" fill="url(#ag)"/>
   <path d="m156.84 527.11s6.9195 35.232 6.6423 49.069c-0.1517 7.5733-3.8068 24.898-3.8068 24.898l6.3447 0.22033s2.3928-29.158 2.07-43.046c-0.20815-8.9559-11.25-31.141-11.25-31.141z" fill="url(#ah)"/>
   <path d="m190.58 535.59s-5.8084 26.747-6.0856 40.584c-0.1517 7.5733-3.8068 24.898-3.8068 24.898l6.3447 0.22033s2.3928-29.158 2.07-43.046c-0.20815-8.9559 1.4777-22.656 1.4777-22.656z" fill="url(#ai)"/>
   <path d="m194.2 510.81s3.7771 33.596 3.5355 53.801c-0.13222 11.059-3.318 36.356-3.318 36.356l5.5301 0.32172s2.0856-42.577 1.8042-62.856c-0.18142-13.078-7.5517-27.622-7.5517-27.622z" fill="url(#aj)"/>
   <path d="m186.14 530.34s5.4548 26.191 3.4098 45.837c-0.78424 7.5341-3.8068 24.898-3.8068 24.898l6.3447 0.22033s2.3928-29.158 2.07-43.046c-0.20815-8.9559-8.0177-27.909-8.0177-27.909z" fill="url(#ak)"/>
   <path d="m177.24 490.42-3.6291 77.875 0.51932 32.99-4.3756 0.01239 3.0524-79.881 4.433-30.996z" fill="url(#al)"/>
   <path d="m186.12 523.19s-8.7268 32.557-8.4852 48.736c0.13222 8.8549 3.318 29.111 3.318 29.111l-5.5301 0.25761s-2.0856-34.092-1.8042-50.33c0.18142-10.471 12.501-27.775 12.501-27.775z" fill="url(#am)"/>
   <path d="m192.47 500.68 2.9725 0.13212 2.3414 59.765-3.2143 40.357 5.3572 0.35714 1.7478-69.774-5.1711-32.428-4.0335 1.591z" fill="url(#an)"/>
   <path d="m201.63 519.4s-12.48 36.345-12.267 52.524c0.11639 8.8549 2.9208 29.111 2.9208 29.111l-4.8679 0.2576s-1.8358-34.092-1.5882-50.33c0.1597-10.471 15.803-31.563 15.803-31.563z" fill="url(#ao)"/>
   <path d="m175.23 470.45 3.5714 93.644-3.2143 36.87 5.3572 0.32628 2.5054-89.585-8.2197-41.255z" fill="url(#ap)"/>
   <path d="m183.06 486.36 4.329 74.216-3.2143 40.357 5.3572 0.35714 1.7478-69.774-8.2197-45.156z" fill="url(#aq)"/>
   <path d="m188.24 527.11s6.9195 35.232 6.6423 49.069c-0.1517 7.5733-3.8068 24.898-3.8068 24.898l6.3447 0.22033s2.3928-29.158 2.07-43.046c-0.20815-8.9559-11.25-31.141-11.25-31.141z" fill="url(#ar)"/>
   <path d="m191.18 527.11s6.9195 35.232 6.6423 49.069c-0.1517 7.5733-3.8068 24.898-3.8068 24.898l6.3447 0.22033s2.3928-29.158 2.07-43.046c-0.20815-8.9559-11.25-31.141-11.25-31.141z" fill="#4d9805"/>
   <path d="m214.6 535.59s5.8084 26.747 6.0856 40.584c0.1517 7.5733 3.8068 24.898 3.8068 24.898l-6.3447 0.22033s-2.3928-29.158-2.07-43.046c0.20815-8.9559-1.4777-22.656-1.4777-22.656z" fill="url(#e)"/>
   <path d="m240.51 510.81s-3.7771 33.596-3.5355 53.801c0.13222 11.059 3.318 36.356 3.318 36.356l-5.5301 0.32172s-2.0856-42.577-1.8042-62.856c0.18142-13.078 7.5517-27.622 7.5517-27.622z" fill="url(#f)"/>
   <path d="m209.06 520.79s-5.6315 35.737-3.5866 55.383c0.78424 7.5341 3.8068 24.898 3.8068 24.898l-6.3447 0.22033s-2.3928-29.158-2.07-43.046c0.20815-8.9559 8.1945-37.455 8.1945-37.455z" fill="url(#g)"/>
   <path d="m218.64 490.42 3.6291 77.875-0.51932 32.99 4.3756 0.01239-3.0524-79.881-4.433-30.996z" fill="url(#h)"/>
   <path d="m212.72 523.19s8.7268 32.557 8.4852 48.736c-0.13222 8.8549-3.318 29.111-3.318 29.111l5.5301 0.25761s2.0856-34.092 1.8042-50.33c-0.18142-10.471-12.501-27.775-12.501-27.775z" fill="url(#i)"/>
   <path d="m211.51 500.51 3.5682 0.3089-2.3414 59.765 3.2143 40.357-5.3572 0.35714-1.7478-69.774 4.9943-28.186-2.3304-2.8284z" fill="url(#j)"/>
   <path d="m229.19 519.4s12.48 36.345 12.267 52.524c-0.11639 8.8549-2.9208 29.111-2.9208 29.111l4.8679 0.2576s1.8358-34.092 1.5882-50.33c-0.1597-10.471-15.803-31.563-15.803-31.563z" fill="url(#k)"/>
   <path d="m208.75 458.08 3.5714 102.5-3.2143 40.357 5.3572 0.35714 2.5054-98.058-8.2197-45.156z" fill="url(#l)"/>
   <path d="m251.43 486.36-4.329 74.216 3.2143 40.357-5.3572 0.35714-1.7478-69.774 8.2197-45.156z" fill="url(#m)"/>
   <path d="m223.08 527.11s-6.9195 35.232-6.6423 49.069c0.1517 7.5733 3.8068 24.898 3.8068 24.898l-6.3447 0.22033s-2.3928-29.158-2.07-43.046c0.20815-8.9559 11.25-31.141 11.25-31.141z" fill="url(#n)"/>
   <path d="m213.53 527.11s-6.9195 35.232-6.6423 49.069c0.1517 7.5733 3.8068 24.898 3.8068 24.898l-6.3447 0.22033s-2.3928-29.158-2.07-43.046c0.20815-8.9559 11.25-31.141 11.25-31.141z" fill="url(#o)"/>
   <path d="m228.29 535.59s5.8084 26.747 6.0856 40.584c0.1517 7.5733 3.8068 24.898 3.8068 24.898l-6.3447 0.22033s-2.3928-29.158-2.07-43.046c0.20815-8.9559-1.4777-22.656-1.4777-22.656z" fill="url(#p)"/>
   <path d="m224.67 510.81s-3.7771 33.596-3.5355 53.801c0.13222 11.059 3.318 36.356 3.318 36.356l-5.5301 0.32172s-2.0856-42.577-1.8042-62.856c0.18142-13.078 7.5517-27.622 7.5517-27.622z" fill="url(#q)"/>
   <path d="m232.73 530.34s-5.4548 26.191-3.4098 45.837c0.78424 7.5341 3.8068 24.898 3.8068 24.898l-6.3447 0.22033s-2.3928-29.158-2.07-43.046c0.20815-8.9559 8.0177-27.909 8.0177-27.909z" fill="url(#r)"/>
   <path d="m243.13 490.42 3.6291 77.875-0.51932 32.99 4.3756 0.01239-3.0524-79.881-4.433-30.996z" fill="url(#s)"/>
   <path d="m226.4 500.68-2.9725 0.13212-2.3414 59.765 3.2143 40.357-5.3572 0.35714-1.7478-69.774 5.1711-32.428 4.0335 1.591z" fill="url(#t)"/>
   <path d="m217.24 519.4s12.48 36.345 12.267 52.524c-0.11639 8.8549-2.9208 29.111-2.9208 29.111l4.8679 0.2576s1.8358-34.092 1.5882-50.33c-0.1597-10.471-15.803-31.563-15.803-31.563z" fill="url(#u)"/>
   <path d="m243.64 470.45-3.5714 93.644 3.2143 36.87-5.3572 0.32628-2.5054-89.585 8.2197-41.255z" fill="url(#v)"/>
   <path d="m235.81 486.36-4.329 74.216 3.2143 40.357-5.3572 0.35714-1.7478-69.774 8.2197-45.156z" fill="url(#w)"/>
  </g>
  <path d="m2 216.48h327v22.5h-327z" fill="url(#as)"/>
 </g>
</svg>
